<?xml version="1.0" encoding="utf-8"?>
<svg xmlns="http://www.w3.org/2000/svg" xmlns:xlink="http://www.w3.org/1999/xlink" style="margin: auto; background: rgb(0, 0, 0); display: block; z-index: 1; position: relative; shape-rendering: auto;" width="960" height="944" preserveAspectRatio="xMidYMid" viewBox="0 0 960 944">
<g transform="translate(480,472) scale(1,1) translate(-480,-472)"><linearGradient id="lg-0.12102821205631242" x1="0" x2="1" y1="0" y2="0">
  <stop stop-color="#ff00ff" offset="0"></stop>
  <stop stop-color="#00ffff" offset="1"></stop>
</linearGradient><path d="M 851 472 C 851 557 795 730 728 783 C 661 836 508 732 425 713 C 342 694 124 738 87 661 C 50 584 51 360 88 283 C 125 206 324 171 407 152 C 490 133 636 139 703 192 C 770 245 851 387 851 472" fill="url(#lg-0.12102821205631242)" opacity="0.43000000000000005">
  <animate attributeName="d" dur="10s" repeatCount="indefinite" keyTimes="0;0.3333333333333333;0.6666666666666666;1" calcmod="spline" keySplines="0.3 0.1 0.7 0.9;0.3 0.1 0.7 0.9;0.3 0.1 0.7 0.9" begin="-4s" values="M 851 472 C 851 557 795 730 728 783 C 661 836 508 732 425 713 C 342 694 124 738 87 661 C 50 584 51 360 88 283 C 125 206 324 171 407 152 C 490 133 636 139 703 192 C 770 245 851 387 851 472;M 968 472 C 968 564 796 721 724 778 C 652 835 486 856 397 836 C 308 816 116 749 76 667 C 36 585 46 364 86 282 C 126 200 316 163 405 143 C 494 123 623 145 695 202 C 767 259 968 380 968 472;M 949 472 C 949 566 790 709 716 768 C 642 827 486 870 394 849 C 302 828 122 749 81 664 C 40 579 27 359 68 274 C 109 189 310 150 402 129 C 494 108 646 112 720 171 C 794 230 949 378 949 472;M 851 472 C 851 557 795 730 728 783 C 661 836 508 732 425 713 C 342 694 124 738 87 661 C 50 584 51 360 88 283 C 125 206 324 171 407 152 C 490 133 636 139 703 192 C 770 245 851 387 851 472"></animate>
</path><path d="M 936 472 C 936 561 754 674 685 729 C 616 784 492 816 406 796 C 320 776 159 725 121 645 C 83 565 99 387 137 307 C 175 227 323 181 409 161 C 495 141 634 137 703 192 C 772 247 936 383 936 472" fill="url(#lg-0.12102821205631242)" opacity="0.43000000000000005">
  <animate attributeName="d" dur="10s" repeatCount="indefinite" keyTimes="0;0.3333333333333333;0.6666666666666666;1" calcmod="spline" keySplines="0.3 0.1 0.7 0.9;0.3 0.1 0.7 0.9;0.3 0.1 0.7 0.9" begin="-4s" values="M 936 472 C 936 561 754 674 685 729 C 616 784 492 816 406 796 C 320 776 159 725 121 645 C 83 565 99 387 137 307 C 175 227 323 181 409 161 C 495 141 634 137 703 192 C 772 247 936 383 936 472;M 920 472 C 920 562 774 696 703 752 C 632 808 502 780 414 760 C 326 740 85 762 46 681 C 7 600 91 384 130 303 C 169 222 317 163 405 143 C 493 123 655 108 726 164 C 797 220 920 382 920 472;M 995 472 C 995 565 763 678 691 736 C 619 794 498 808 408 787 C 318 766 115 751 75 667 C 35 583 23 354 63 271 C 103 188 314 160 404 139 C 494 118 643 119 715 177 C 787 235 995 379 995 472;M 936 472 C 936 561 754 674 685 729 C 616 784 492 816 406 796 C 320 776 159 725 121 645 C 83 565 99 387 137 307 C 175 227 323 181 409 161 C 495 141 634 137 703 192 C 772 247 936 383 936 472"></animate>
</path><path d="M 925 472 C 925 559 808 744 740 798 C 672 852 501 772 416 753 C 331 734 135 735 97 656 C 59 577 108 390 146 311 C 184 232 333 220 418 201 C 503 182 673 91 741 145 C 809 199 925 385 925 472" fill="url(#lg-0.12102821205631242)" opacity="0.43000000000000005">
  <animate attributeName="d" dur="10s" repeatCount="indefinite" keyTimes="0;0.3333333333333333;0.6666666666666666;1" calcmod="spline" keySplines="0.3 0.1 0.7 0.9;0.3 0.1 0.7 0.9;0.3 0.1 0.7 0.9" begin="-4s" values="M 925 472 C 925 559 808 744 740 798 C 672 852 501 772 416 753 C 331 734 135 735 97 656 C 59 577 108 390 146 311 C 184 232 333 220 418 201 C 503 182 673 91 741 145 C 809 199 925 385 925 472;M 957 472 C 957 561 757 675 687 731 C 617 787 488 837 401 817 C 314 797 173 719 134 639 C 95 559 36 357 75 277 C 114 197 324 192 411 172 C 498 152 675 83 745 139 C 815 195 957 383 957 472;M 964 472 C 964 561 757 676 687 732 C 617 788 489 832 402 812 C 315 792 133 738 94 658 C 55 578 68 373 107 293 C 146 213 331 221 418 201 C 505 181 655 109 725 165 C 795 221 964 383 964 472;M 925 472 C 925 559 808 744 740 798 C 672 852 501 772 416 753 C 331 734 135 735 97 656 C 59 577 108 390 146 311 C 184 232 333 220 418 201 C 503 182 673 91 741 145 C 809 199 925 385 925 472"></animate>
</path><path d="M 905 472 C 905 563 781 703 710 760 C 639 817 497 806 408 786 C 319 766 82 764 43 682 C 4 600 56 369 95 287 C 134 205 332 236 421 216 C 510 196 627 142 698 199 C 769 256 905 381 905 472" fill="url(#lg-0.12102821205631242)" opacity="0.43000000000000005">
  <animate attributeName="d" dur="10s" repeatCount="indefinite" keyTimes="0;0.3333333333333333;0.6666666666666666;1" calcmod="spline" keySplines="0.3 0.1 0.7 0.9;0.3 0.1 0.7 0.9;0.3 0.1 0.7 0.9" begin="-4s" values="M 905 472 C 905 563 781 703 710 760 C 639 817 497 806 408 786 C 319 766 82 764 43 682 C 4 600 56 369 95 287 C 134 205 332 236 421 216 C 510 196 627 142 698 199 C 769 256 905 381 905 472;M 996 472 C 996 566 795 715 721 774 C 647 833 494 835 402 814 C 310 793 155 733 114 648 C 73 563 73 381 114 296 C 155 211 306 136 398 115 C 490 94 670 81 744 140 C 818 199 996 378 996 472;M 919 472 C 919 561 785 713 716 768 C 647 823 485 847 399 827 C 313 807 134 737 96 657 C 58 577 37 357 76 277 C 115 197 316 152 402 132 C 488 112 617 158 686 213 C 755 268 919 383 919 472;M 905 472 C 905 563 781 703 710 760 C 639 817 497 806 408 786 C 319 766 82 764 43 682 C 4 600 56 369 95 287 C 134 205 332 236 421 216 C 510 196 627 142 698 199 C 769 256 905 381 905 472"></animate>
</path><path d="M 932 472 C 932 558 763 689 696 743 C 629 797 503 760 419 741 C 335 722 144 729 107 651 C 70 573 62 366 99 288 C 136 210 322 169 406 150 C 490 131 648 124 715 178 C 782 232 932 386 932 472" fill="url(#lg-0.12102821205631242)" opacity="0.43000000000000005">
  <animate attributeName="d" dur="10s" repeatCount="indefinite" keyTimes="0;0.3333333333333333;0.6666666666666666;1" calcmod="spline" keySplines="0.3 0.1 0.7 0.9;0.3 0.1 0.7 0.9;0.3 0.1 0.7 0.9" begin="-4s" values="M 932 472 C 932 558 763 689 696 743 C 629 797 503 760 419 741 C 335 722 144 729 107 651 C 70 573 62 366 99 288 C 136 210 322 169 406 150 C 490 131 648 124 715 178 C 782 232 932 386 932 472;M 884 472 C 884 559 782 710 714 765 C 646 820 492 810 407 790 C 322 770 144 731 106 652 C 68 573 39 357 77 278 C 115 199 338 239 423 220 C 508 201 669 95 737 149 C 805 203 884 385 884 472;M 926 472 C 926 565 834 766 761 824 C 688 882 494 828 403 807 C 312 786 160 729 120 645 C 80 561 52 369 92 285 C 132 201 323 206 414 185 C 505 164 652 106 725 164 C 798 222 926 379 926 472;M 932 472 C 932 558 763 689 696 743 C 629 797 503 760 419 741 C 335 722 144 729 107 651 C 70 573 62 366 99 288 C 136 210 322 169 406 150 C 490 131 648 124 715 178 C 782 232 932 386 932 472"></animate>
</path></g>
</svg>