<?xml version="1.0" encoding="utf-8"?>
<svg xmlns="http://www.w3.org/2000/svg" xmlns:xlink="http://www.w3.org/1999/xlink" style="margin: auto; background: none; display: block; z-index: 1; position: relative; shape-rendering: auto;" width="1920" height="944" preserveAspectRatio="xMidYMid" viewBox="0 0 1920 944">
<g transform="translate(960,472) scale(1,1) translate(-960,-472)"><path id="path0" d="M 542.6851808695097 371.6416699946497
c 0 26.91520695826136 -6.585635745106503 7.7309637007772 -14.316599445883702 7.7309637007772
S 514.0519819777422 398.55687695291107 514.0519819777422 371.6416699946497
s 6.585635745106503 -7.7309637007772 14.316599445883702 -7.7309637007772
S 542.6851808695097 344.72646303638834 542.6851808695097 371.6416699946497
z" fill="none" stroke="none"></path>
<circle cx="0" cy="0" r="6.1933172122679165" fill="#e0ff77">
  <animateMotion begin="-0.11617079620996895s" dur="10s" repeatCount="indefinite">
    <mpath xlink:href="#path0"></mpath>
  </animateMotion>
</circle><path id="path1" d="M 1917.902385379513 723.3135370984043
c 0 20.641276098278055 -5.050525002770162 5.928877177164974 -10.979402179935136 5.928877177164974
S 1895.9435810196428 743.9548131966823 1895.9435810196428 723.3135370984043
s 5.050525002770162 -5.928877177164974 10.979402179935136 -5.928877177164974
S 1917.902385379513 702.6722610001262 1917.902385379513 723.3135370984043
z" fill="none" stroke="none"></path>
<circle cx="0" cy="0" r="4.0673270639267995" fill="#de9dd6">
  <animateMotion begin="-6.411776087802918s" dur="10s" repeatCount="indefinite">
    <mpath xlink:href="#path1"></mpath>
  </animateMotion>
</circle><path id="path2" d="M 1078.8096480489212 605.8006898388086
c 0 35.567076993091234 -8.702582668522323 10.216075306526207 -18.91865797504853 10.216075306526207
S 1040.9723320988242 641.3677668318999 1040.9723320988242 605.8006898388086
s 8.702582668522323 -10.216075306526207 18.91865797504853 -10.216075306526207
S 1078.8096480489212 570.2336128457173 1078.8096480489212 605.8006898388086
z" fill="none" stroke="none"></path>
<circle cx="0" cy="0" r="7.999011165147788" fill="#9df871">
  <animateMotion begin="-1.6259419922519358s" dur="10s" repeatCount="indefinite">
    <mpath xlink:href="#path2"></mpath>
  </animateMotion>
</circle><path id="path3" d="M 1389.1445447164272 548.2010241894338
c 0 19.01647258631597 -4.65296669665178 5.462178296069482 -10.11514499272126 5.462178296069482
S 1368.9142547309846 567.2174967757499 1368.9142547309846 548.2010241894338
s 4.65296669665178 -5.462178296069482 10.11514499272126 -5.462178296069482
S 1389.1445447164272 529.1845516031178 1389.1445447164272 548.2010241894338
z" fill="none" stroke="none"></path>
<circle cx="0" cy="0" r="7.089295619069237" fill="#51cacc">
  <animateMotion begin="-6.044361247037524s" dur="10s" repeatCount="indefinite">
    <mpath xlink:href="#path3"></mpath>
  </animateMotion>
</circle><path id="path4" d="M 536.1023338274393 792.2921566659253
c 0 29.379025090756407 -7.188484862631886 8.438656143089606 -15.627141005721493 8.438656143089606
S 504.84805181599637 821.6711817566817 504.84805181599637 792.2921566659253
s 7.188484862631886 -8.438656143089606 15.627141005721493 -8.438656143089606
S 536.1023338274393 762.9131315751689 536.1023338274393 792.2921566659253
z" fill="none" stroke="none"></path>
<circle cx="0" cy="0" r="6.470022012116379" fill="#ff708e">
  <animateMotion begin="-3.002291695242172s" dur="10s" repeatCount="indefinite">
    <mpath xlink:href="#path4"></mpath>
  </animateMotion>
</circle><path id="path5" d="M 1214.1735288094676 202.76871781987657
c 0 23.881662292853548 -5.843385454634379 6.859626403266445 -12.703011857900822 6.859626403266445
S 1188.7675050936662 226.65038011273012 1188.7675050936662 202.76871781987657
s 5.843385454634379 -6.859626403266445 12.703011857900822 -6.859626403266445
S 1214.1735288094676 178.88705552702302 1214.1735288094676 202.76871781987657
z" fill="none" stroke="none"></path>
<circle cx="0" cy="0" r="4.390704312599859" fill="#ff708e">
  <animateMotion begin="-1.197161118918284s" dur="10s" repeatCount="indefinite">
    <mpath xlink:href="#path5"></mpath>
  </animateMotion>
</circle><path id="path6" d="M 1516.3317583630724 766.7324666984226
c 0 24.84122707262921 -6.0781725816007635 7.135246074053071 -13.213418655653834 7.135246074053071
S 1489.9049210517646 791.5736937710518 1489.9049210517646 766.7324666984226
s 6.0781725816007635 -7.135246074053071 13.213418655653834 -7.135246074053071
S 1516.3317583630724 741.8912396257934 1516.3317583630724 766.7324666984226
z" fill="none" stroke="none"></path>
<circle cx="0" cy="0" r="6.442789171763067" fill="#51cacc">
  <animateMotion begin="-6.335738580070014s" dur="10s" repeatCount="indefinite">
    <mpath xlink:href="#path6"></mpath>
  </animateMotion>
</circle><path id="path7" d="M 938.9692886768757 473.8570009306343
c 0 35.44629455351079 -8.673029518412212 10.181382478136078 -18.85441199654829 10.181382478136078
S 901.2604646837792 509.30329548414505 901.2604646837792 473.8570009306343
s 8.673029518412212 -10.181382478136078 18.85441199654829 -10.181382478136078
S 938.9692886768757 438.4107063771235 938.9692886768757 473.8570009306343
z" fill="none" stroke="none"></path>
<circle cx="0" cy="0" r="7.718697425840721" fill="#51cacc">
  <animateMotion begin="-7.677282386743435s" dur="10s" repeatCount="indefinite">
    <mpath xlink:href="#path7"></mpath>
  </animateMotion>
</circle><path id="path8" d="M 1129.1228228321297 448.1366664149542
c 0 33.05168571845689 -8.087114590686259 9.493569302109957 -17.580683892796216 9.493569302109957
S 1093.9614550465371 481.1883521334111 1093.9614550465371 448.1366664149542
s 8.087114590686259 -9.493569302109957 17.580683892796216 -9.493569302109957
S 1129.1228228321297 415.0849806964973 1129.1228228321297 448.1366664149542
z" fill="none" stroke="none"></path>
<circle cx="0" cy="0" r="4.921887334550881" fill="#e0ff77">
  <animateMotion begin="-7.648824672027617s" dur="10s" repeatCount="indefinite">
    <mpath xlink:href="#path8"></mpath>
  </animateMotion>
</circle><path id="path9" d="M 533.6227522366846 761.0301252681854
c 0 21.924814139737475 -5.364582183127253 6.297552997584168 -11.662135180711422 6.297552997584168
S 510.2984818752618 782.9549394079229 510.2984818752618 761.0301252681854
s 5.364582183127253 -6.297552997584168 11.662135180711422 -6.297552997584168
S 533.6227522366846 739.105311128448 533.6227522366846 761.0301252681854
z" fill="none" stroke="none"></path>
<circle cx="0" cy="0" r="5.44747403525308" fill="#9df871">
  <animateMotion begin="-4.469966853050867s" dur="10s" repeatCount="indefinite">
    <mpath xlink:href="#path9"></mpath>
  </animateMotion>
</circle><path id="path10" d="M 1603.6103540234799 834.2618174653813
c 0 23.76283339372095 -5.814310298463637 6.825494698196444 -12.63980499666008 6.825494698196444
S 1578.3307440301596 858.0246508591023 1578.3307440301596 834.2618174653813
s 5.814310298463637 -6.825494698196444 12.63980499666008 -6.825494698196444
S 1603.6103540234799 810.4989840716604 1603.6103540234799 834.2618174653813
z" fill="none" stroke="none"></path>
<circle cx="0" cy="0" r="5.318669874519591" fill="#e0ff77">
  <animateMotion begin="-8.44060294245335s" dur="10s" repeatCount="indefinite">
    <mpath xlink:href="#path10"></mpath>
  </animateMotion>
</circle><path id="path11" d="M 1141.692339631693 538.9229589997776
c 0 25.698957794963135 -6.288042864725021 7.381615536851113 -13.669658401576134 7.381615536851113
S 1114.3530228285408 564.6219167947407 1114.3530228285408 538.9229589997776
s 6.288042864725021 -7.381615536851113 13.669658401576134 -7.381615536851113
S 1141.692339631693 513.2240012048145 1141.692339631693 538.9229589997776
z" fill="none" stroke="none"></path>
<circle cx="0" cy="0" r="4.023312671150904" fill="#e0ff77">
  <animateMotion begin="-2.802547530963515s" dur="10s" repeatCount="indefinite">
    <mpath xlink:href="#path11"></mpath>
  </animateMotion>
</circle><path id="path12" d="M 1482.120605025989 376.66229458959697
c 0 22.81260815387897 -5.581808378076769 6.552557661220556 -12.134366039297324 6.552557661220556
S 1457.8518729473947 399.4749027434759 1457.8518729473947 376.66229458959697
s 5.581808378076769 -6.552557661220556 12.134366039297324 -6.552557661220556
S 1482.120605025989 353.849686435718 1482.120605025989 376.66229458959697
z" fill="none" stroke="none"></path>
<circle cx="0" cy="0" r="7.02254680511632" fill="#ff708e">
  <animateMotion begin="-8.077457470183475s" dur="10s" repeatCount="indefinite">
    <mpath xlink:href="#path12"></mpath>
  </animateMotion>
</circle><path id="path13" d="M 1369.9675401566635 871.5677604302389
c 0 32.60074184590453 -7.976777260168128 9.364042870632153 -17.34082013080028 9.364042870632153
S 1335.285899895063 904.1685022761434 1335.285899895063 871.5677604302389
s 7.976777260168128 -9.364042870632153 17.34082013080028 -9.364042870632153
S 1369.9675401566635 838.9670185843344 1369.9675401566635 871.5677604302389
z" fill="none" stroke="none"></path>
<circle cx="0" cy="0" r="5.616756754709085" fill="#de9dd6">
  <animateMotion begin="-1.3952356330803162s" dur="10s" repeatCount="indefinite">
    <mpath xlink:href="#path13"></mpath>
  </animateMotion>
</circle><path id="path14" d="M 1768.8466408386355 766.6052944235771
c 0 29.047104007406443 -7.107270129471789 8.34331710851036 -15.45058723798215 8.34331710851036
S 1737.9454663626714 795.6523984309836 1737.9454663626714 766.6052944235771
s 7.107270129471789 -8.34331710851036 15.45058723798215 -8.34331710851036
S 1768.8466408386355 737.5581904161706 1768.8466408386355 766.6052944235771
z" fill="none" stroke="none"></path>
<circle cx="0" cy="0" r="4.882813044523704" fill="#9df871">
  <animateMotion begin="-2.1036732904651623s" dur="10s" repeatCount="indefinite">
    <mpath xlink:href="#path14"></mpath>
  </animateMotion>
</circle><path id="path15" d="M 1294.626200408492 653.7145553915461
c 0 20.24697142194834 -4.95404619898736 5.815619450985162 -10.769665649972522 5.815619450985162
S 1273.086869108547 673.9615268134945 1273.086869108547 653.7145553915461
s 4.95404619898736 -5.815619450985162 10.769665649972522 -5.815619450985162
S 1294.626200408492 633.4675839695977 1294.626200408492 653.7145553915461
z" fill="none" stroke="none"></path>
<circle cx="0" cy="0" r="4.376725594111393" fill="#de9dd6">
  <animateMotion begin="-5.604994993798734s" dur="10s" repeatCount="indefinite">
    <mpath xlink:href="#path15"></mpath>
  </animateMotion>
</circle><path id="path16" d="M 389.74313210899646 918.123012717253
c 0 36.721284587905956 -8.984995165125923 10.547603019930435 -19.532598185056358 10.547603019930435
S 350.6779357388837 954.844297305159 350.6779357388837 918.123012717253
s 8.984995165125923 -10.547603019930435 19.532598185056358 -10.547603019930435
S 389.74313210899646 881.401728129347 389.74313210899646 918.123012717253
z" fill="none" stroke="none"></path>
<circle cx="0" cy="0" r="5.423712975611468" fill="#e0ff77">
  <animateMotion begin="-4.165092260401757s" dur="10s" repeatCount="indefinite">
    <mpath xlink:href="#path16"></mpath>
  </animateMotion>
</circle><path id="path17" d="M 1076.9127050598613 703.2552640775773
c 0 25.95212801019593 -6.349988768452196 7.454334641226492 -13.804323409678688 7.454334641226492
S 1049.3040582405038 729.2073920877732 1049.3040582405038 703.2552640775773
s 6.349988768452196 -7.454334641226492 13.804323409678688 -7.454334641226492
S 1076.9127050598613 677.3031360673814 1076.9127050598613 703.2552640775773
z" fill="none" stroke="none"></path>
<circle cx="0" cy="0" r="6.013311436307191" fill="#51cacc">
  <animateMotion begin="-6.398802481698076s" dur="10s" repeatCount="indefinite">
    <mpath xlink:href="#path17"></mpath>
  </animateMotion>
</circle><path id="path18" d="M 176.68656652801926 96.85078862271611
c 0 37.52817849617715 -9.18242665331994 10.779370419114713 -19.961797072434653 10.779370419114713
S 136.76297238314996 134.37896711889326 136.76297238314996 96.85078862271611
s 9.18242665331994 -10.779370419114713 19.961797072434653 -10.779370419114713
S 176.68656652801926 59.32261012653896 176.68656652801926 96.85078862271611
z" fill="none" stroke="none"></path>
<circle cx="0" cy="0" r="5.7533679392537875" fill="#51cacc">
  <animateMotion begin="-8.79415264533659s" dur="10s" repeatCount="indefinite">
    <mpath xlink:href="#path18"></mpath>
  </animateMotion>
</circle><path id="path19" d="M 634.4254780329509 305.56000030369717
c 0 27.555683717717667 -6.7423481436968755 7.914930429557202 -14.657278573254079 7.914930429557202
S 605.1109208864427 333.11568402141484 605.1109208864427 305.56000030369717
s 6.7423481436968755 -7.914930429557202 14.657278573254079 -7.914930429557202
S 634.4254780329509 278.0043165859795 634.4254780329509 305.56000030369717
z" fill="none" stroke="none"></path>
<circle cx="0" cy="0" r="4.53535175799164" fill="#9df871">
  <animateMotion begin="-3.5036317711596587s" dur="10s" repeatCount="indefinite">
    <mpath xlink:href="#path19"></mpath>
  </animateMotion>
</circle><path id="path20" d="M 593.0129052978909 719.1452605911126
c 0 21.458953013360144 -5.250594886247694 6.163741822986425 -11.414336709234119 6.163741822986425
S 570.1842318794227 740.6042136044728 570.1842318794227 719.1452605911126
s 5.250594886247694 -6.163741822986425 11.414336709234119 -6.163741822986425
S 593.0129052978909 697.6863075777524 593.0129052978909 719.1452605911126
z" fill="none" stroke="none"></path>
<circle cx="0" cy="0" r="6.305765457734388" fill="#9df871">
  <animateMotion begin="-9.55114063971342s" dur="10s" repeatCount="indefinite">
    <mpath xlink:href="#path20"></mpath>
  </animateMotion>
</circle><path id="path21" d="M 1177.9285428665607 816.5044250401019
c 0 35.69950992614641 -8.734986471291142 10.254114553254821 -18.989101024545963 10.254114553254821
S 1139.9503408174687 852.2039349662483 1139.9503408174687 816.5044250401019
s 8.734986471291142 -10.254114553254821 18.989101024545963 -10.254114553254821
S 1177.9285428665607 780.8049151139554 1177.9285428665607 816.5044250401019
z" fill="none" stroke="none"></path>
<circle cx="0" cy="0" r="6.847625667526925" fill="#de9dd6">
  <animateMotion begin="-3.7016524128666917s" dur="10s" repeatCount="indefinite">
    <mpath xlink:href="#path21"></mpath>
  </animateMotion>
</circle><path id="path22" d="M 1877.4246785189928 756.4002645238716
c 0 23.40056950321075 -5.725671261423906 6.721440176454152 -12.447111437878057 6.721440176454152
S 1852.5304556432368 779.8008340270823 1852.5304556432368 756.4002645238716
s 5.725671261423906 -6.721440176454152 12.447111437878057 -6.721440176454152
S 1877.4246785189928 732.9996950206609 1877.4246785189928 756.4002645238716
z" fill="none" stroke="none"></path>
<circle cx="0" cy="0" r="6.533452762148929" fill="#de9dd6">
  <animateMotion begin="-1.7657686513290072s" dur="10s" repeatCount="indefinite">
    <mpath xlink:href="#path22"></mpath>
  </animateMotion>
</circle><path id="path23" d="M 1497.2887339422223 679.7398503214549
c 0 36.39124189296112 -8.904240037639422 10.45280352244628 -19.357043560085703 10.45280352244628
S 1458.574646822051 716.1310922144161 1458.574646822051 679.7398503214549
s 8.904240037639422 -10.45280352244628 19.357043560085703 -10.45280352244628
S 1497.2887339422223 643.3486084284938 1497.2887339422223 679.7398503214549
z" fill="none" stroke="none"></path>
<circle cx="0" cy="0" r="6.364517393790559" fill="#9df871">
  <animateMotion begin="-8.464072515226926s" dur="10s" repeatCount="indefinite">
    <mpath xlink:href="#path23"></mpath>
  </animateMotion>
</circle><path id="path24" d="M 934.8253051416676 901.99560889516
c 0 18.81832803402606 -4.604484518963822 5.405264435305358 -10.00974895426918 5.405264435305358
S 914.8058072331293 920.8139369291861 914.8058072331293 901.99560889516
s 4.604484518963822 -5.405264435305358 10.00974895426918 -5.405264435305358
S 934.8253051416676 883.1772808611339 934.8253051416676 901.99560889516
z" fill="none" stroke="none"></path>
<circle cx="0" cy="0" r="6.4188887058200415" fill="#9df871">
  <animateMotion begin="-2.713495232290848s" dur="10s" repeatCount="indefinite">
    <mpath xlink:href="#path24"></mpath>
  </animateMotion>
</circle><path id="path25" d="M 195.3369604135468 79.75476634483546
c 0 30.23352271157437 -7.397564067725643 8.684096949069234 -16.081661016794875 8.684096949069234
S 163.17363837995705 109.98828905640983 163.17363837995705 79.75476634483546
s 7.397564067725643 -8.684096949069234 16.081661016794875 -8.684096949069234
S 195.3369604135468 49.52124363326109 195.3369604135468 79.75476634483546
z" fill="none" stroke="none"></path>
<circle cx="0" cy="0" r="5.43142467195584" fill="#9df871">
  <animateMotion begin="-8.670888984718488s" dur="10s" repeatCount="indefinite">
    <mpath xlink:href="#path25"></mpath>
  </animateMotion>
</circle><path id="path26" d="M 1219.3927009045426 52.33380233676566
c 0 37.39013091763184 -9.148649054314173 10.739718455064466 -19.88836750937864 10.739718455064466
S 1179.6159658857853 89.72393325439751 1179.6159658857853 52.33380233676566
s 9.148649054314173 -10.739718455064466 19.88836750937864 -10.739718455064466
S 1219.3927009045426 14.943671419133814 1219.3927009045426 52.33380233676566
z" fill="none" stroke="none"></path>
<circle cx="0" cy="0" r="7.309449211987402" fill="#9df871">
  <animateMotion begin="-3.392009710053754s" dur="10s" repeatCount="indefinite">
    <mpath xlink:href="#path26"></mpath>
  </animateMotion>
</circle><path id="path27" d="M 506.4035695125131 518.2119779739166
c 0 34.15340024114492 -8.356683037726947 9.810019218201202 -18.16670225592815 9.810019218201202
S 470.0701650006568 552.3653782150616 470.0701650006568 518.2119779739166
s 8.356683037726947 -9.810019218201202 18.16670225592815 -9.810019218201202
S 506.4035695125131 484.0585777327717 506.4035695125131 518.2119779739166
z" fill="none" stroke="none"></path>
<circle cx="0" cy="0" r="7.670276815293067" fill="#9df871">
  <animateMotion begin="-9.914508098256555s" dur="10s" repeatCount="indefinite">
    <mpath xlink:href="#path27"></mpath>
  </animateMotion>
</circle><path id="path28" d="M 1132.5375333632003 818.9966397796768
c 0 23.5685087885583 -5.766762788689796 6.769678056288022 -12.536440844977818 6.769678056288022
S 1107.4646516732448 842.5651485682351 1107.4646516732448 818.9966397796768
s 5.766762788689796 -6.769678056288022 12.536440844977818 -6.769678056288022
S 1132.5375333632003 795.4281309911185 1132.5375333632003 818.9966397796768
z" fill="none" stroke="none"></path>
<circle cx="0" cy="0" r="5.893155052574059" fill="#de9dd6">
  <animateMotion begin="-2.329073481424744s" dur="10s" repeatCount="indefinite">
    <mpath xlink:href="#path28"></mpath>
  </animateMotion>
</circle><path id="path29" d="M 1057.6277050213716 814.7410902296484
c 0 34.940654453908934 -8.549309068509633 10.036145428250439 -18.58545449676007 10.036145428250439
S 1020.4567960278514 849.6817446835573 1020.4567960278514 814.7410902296484
s 8.549309068509633 -10.036145428250439 18.58545449676007 -10.036145428250439
S 1057.6277050213716 779.8004357757395 1057.6277050213716 814.7410902296484
z" fill="none" stroke="none"></path>
<circle cx="0" cy="0" r="6.028764459467308" fill="#e0ff77">
  <animateMotion begin="-5.722604847114523s" dur="10s" repeatCount="indefinite">
    <mpath xlink:href="#path29"></mpath>
  </animateMotion>
</circle></g>
</svg>