<?xml version="1.0" encoding="utf-8"?><svg xmlns="http://www.w3.org/2000/svg" xmlns:xlink="http://www.w3.org/1999/xlink" width="1920" height="944" preserveAspectRatio="xMidYMid" viewBox="0 0 1920 944" style="z-index:1;margin-right:-2px;display:block;background-repeat-y:initial;background-repeat-x:initial;animation-play-state:paused" ><g transform="translate(960,472) scale(1,1) translate(-960,-472)" style="transform:matrix(1, 0, 0, 1, 0, 0);animation-play-state:paused" ><path id="path0" d="M 772.4874885732379 514.1590294036288
c 0 35.095551704848106 -8.587209459696876 10.080637191818074 -18.66784665151495 10.080637191818074
S 735.1517952702079 549.2545811084769 735.1517952702079 514.1590294036288
s 8.587209459696876 -10.080637191818074 18.66784665151495 -10.080637191818074
S 772.4874885732379 479.0634776987807 772.4874885732379 514.1590294036288
z" fill="none" stroke="none" style="animation-play-state:paused" ></path>


<circle cx="0" cy="0" r="5.934671173432594" fill="#ff708e" transform="translate(753.861328125 504.0780334472656)" style="animation-play-state:paused" ></circle>
<path id="path1" d="M 235.3164889532727 869.9588870042422
c 0 30.55106961200136 -7.4752617135748 8.775307228979115 -16.25056894255391 8.775307228979115
S 202.8153510681649 900.5099566162436 202.8153510681649 869.9588870042422
s 7.4752617135748 -8.775307228979115 16.25056894255391 -8.775307228979115
S 235.3164889532727 839.4078173922409 235.3164889532727 869.9588870042422
z" fill="none" stroke="none" style="animation-play-state:paused" ></path>


<circle cx="0" cy="0" r="6.75979362065603" fill="#9df871" transform="translate(215.3200225830078 860.018798828125)" style="animation-play-state:paused" ></circle>
<path id="path2" d="M 291.39252885055276 84.21932133599924
c 0 32.3221479123629 -7.908610659407943 9.284021208870195 -17.192631868278138 9.284021208870195
S 257.00726511399654 116.54146924836215 257.00726511399654 84.21932133599924
s 7.908610659407943 -9.284021208870195 17.192631868278138 -9.284021208870195
S 291.39252885055276 51.89717342363634 291.39252885055276 84.21932133599924
z" fill="none" stroke="none" style="animation-play-state:paused" ></path>


<circle cx="0" cy="0" r="4.11381959177302" fill="#9df871" transform="translate(290.95880126953125 94.63394165039062)" style="animation-play-state:paused" ></circle>
<path id="path3" d="M 1790.0268046323442 75.06894755875932
c 0 25.9057569128609 -6.338642648891496 7.441015283481323 -13.77965793237282 7.441015283481323
S 1762.4674887675985 100.97470447162021 1762.4674887675985 75.06894755875932
s 6.338642648891496 -7.441015283481323 13.77965793237282 -7.441015283481323
S 1790.0268046323442 49.16319064589842 1790.0268046323442 75.06894755875932
z" fill="none" stroke="none" style="animation-play-state:paused" ></path>


<circle cx="0" cy="0" r="6.984055165011464" fill="#51cacc" transform="translate(1762.5068359375 71.80270385742188)" style="animation-play-state:paused" ></circle>
<path id="path4" d="M 1695.5081156087053 767.1694407127744
c 0 27.156997946489817 -6.644797369885805 7.8004143037789895 -14.445211673664796 7.8004143037789895
S 1666.6176922613759 794.3264386592642 1666.6176922613759 767.1694407127744
s 6.644797369885805 -7.8004143037789895 14.445211673664796 -7.8004143037789895
S 1695.5081156087053 740.0124427662846 1695.5081156087053 767.1694407127744
z" fill="none" stroke="none" style="animation-play-state:paused" ></path>


<circle cx="0" cy="0" r="5.675597214703404" fill="#e0ff77" transform="translate(1688.7794189453125 779.419189453125)" style="animation-play-state:paused" ></circle>
<path id="path5" d="M 640.0581238617747 917.0694585890602
c 0 21.210229565035117 -5.189737021231996 6.092299981446257 -11.282037002678253 6.092299981446257
S 617.4940498564181 938.2796881540953 617.4940498564181 917.0694585890602
s 5.189737021231996 -6.092299981446257 11.282037002678253 -6.092299981446257
S 640.0581238617747 895.8592290240251 640.0581238617747 917.0694585890602
z" fill="none" stroke="none" style="animation-play-state:paused" ></path>


<circle cx="0" cy="0" r="7.302017768368727" fill="#51cacc" transform="translate(627.5606079101562 910.7875366210938)" style="animation-play-state:paused" ></circle>
<path id="path6" d="M 729.1735720842353 258.8295082213632
c 0 25.007157437774573 -6.118772564561863 7.182906923616101 -13.301679488177964 7.182906923616101
S 702.5702131078795 283.8366656591378 702.5702131078795 258.8295082213632
s 6.118772564561863 -7.182906923616101 13.301679488177964 -7.182906923616101
S 729.1735720842353 233.82235078358863 729.1735720842353 258.8295082213632
z" fill="none" stroke="none" style="animation-play-state:paused" ></path>


<circle cx="0" cy="0" r="4.418264008482463" fill="#9df871" transform="translate(702.570556640625 259.0105285644531)" style="animation-play-state:paused" ></circle>
<path id="path7" d="M 369.34682946839405 830.0532020042663
c 0 33.86472156245348 -8.286048892940745 9.727100874321746 -18.01314976726249 9.727100874321746
S 333.320529933869 863.9179235667198 333.320529933869 830.0532020042663
s 8.286048892940745 -9.727100874321746 18.01314976726249 -9.727100874321746
S 369.34682946839405 796.1884804418128 369.34682946839405 830.0532020042663
z" fill="none" stroke="none" style="animation-play-state:paused" ></path>


<circle cx="0" cy="0" r="4.421209861132364" fill="#9df871" transform="translate(352.9233703613281 820.1209106445312)" style="animation-play-state:paused" ></circle>
<path id="path8" d="M 71.02823140203441 91.19606617113861
c 0 21.043077578418885 -5.148838130889727 6.04428824060968 -11.193126371499407 6.04428824060968
S 48.6419786590356 112.2391437495575 48.6419786590356 91.19606617113861
s 5.148838130889727 -6.04428824060968 11.193126371499407 -6.04428824060968
S 71.02823140203441 70.15298859271972 71.02823140203441 91.19606617113861
z" fill="none" stroke="none" style="animation-play-state:paused" ></path>


<circle cx="0" cy="0" r="4.834640411360344" fill="#de9dd6" transform="translate(50.36221694946289 102.24116516113281)" style="animation-play-state:paused" ></circle>
<path id="path9" d="M 1035.8712006370208 913.114888311868
c 0 32.05709424059142 -7.8437571014213034 9.207888771233705 -17.05164587265501 9.207888771233705
S 1001.7679088917107 945.1719825524593 1001.7679088917107 913.114888311868
s 7.8437571014213034 -9.207888771233705 17.05164587265501 -9.207888771233705
S 1035.8712006370208 881.0577940712766 1035.8712006370208 913.114888311868
z" fill="none" stroke="none" style="animation-play-state:paused" ></path>


<circle cx="0" cy="0" r="4.59951187763694" fill="#ff708e" transform="translate(1035.5059814453125 922.8154907226562)" style="animation-play-state:paused" ></circle>
<path id="path10" d="M 793.7848570823256 544.3305069598366
c 0 23.61869522441581 -5.779042448527272 6.784093309140711 -12.563135757667983 6.784093309140711
S 768.6585855669897 567.9492021842524 768.6585855669897 544.3305069598366
s 5.779042448527272 -6.784093309140711 12.563135757667983 -6.784093309140711
S 793.7848570823256 520.7118117354208 793.7848570823256 544.3305069598366
z" fill="none" stroke="none" style="animation-play-state:paused" ></path>


<circle cx="0" cy="0" r="4.517250774955851" fill="#51cacc" transform="translate(780.5460815429688 551.1689453125)" style="animation-play-state:paused" ></circle>
<path id="path11" d="M 50.258037290061154 501.26063114554876
c 0 28.14284600031364 -6.886015510715038 8.083583425622002 -14.969598936337041 8.083583425622002
S 20.318839417387068 529.4034771458624 20.318839417387068 501.26063114554876
s 6.886015510715038 -8.083583425622002 14.969598936337041 -8.083583425622002
S 50.258037290061154 473.11778514523513 50.258037290061154 501.26063114554876
z" fill="none" stroke="none" style="animation-play-state:paused" ></path>


<circle cx="0" cy="0" r="7.899081059770153" fill="#51cacc" transform="translate(46.97111129760742 486.2572021484375)" style="animation-play-state:paused" ></circle>
<path id="path12" d="M 1011.773289686589 59.417586045224084
c 0 24.88140351704645 -6.088002988213493 7.146786116598449 -13.234789104811941 7.146786116598449
S 985.3037114769651 84.29898956227053 985.3037114769651 59.417586045224084
s 6.088002988213493 -7.146786116598449 13.234789104811941 -7.146786116598449
S 1011.773289686589 34.53618252817763 1011.773289686589 59.417586045224084
z" fill="none" stroke="none" style="animation-play-state:paused" ></path>


<circle cx="0" cy="0" r="5.157128889367348" fill="#ff708e" transform="translate(985.4041748046875 64.31343078613281)" style="animation-play-state:paused" ></circle>
<path id="path13" d="M 942.4366354894336 389.20378477423066
c 0 25.045171949603525 -6.128073987668946 7.193825985524416 -13.321899973193362 7.193825985524416
S 915.7928355430469 414.24895672383417 915.7928355430469 389.20378477423066
s 6.128073987668946 -7.193825985524416 13.321899973193362 -7.193825985524416
S 942.4366354894336 364.15861282462714 942.4366354894336 389.20378477423066
z" fill="none" stroke="none" style="animation-play-state:paused" ></path>


<circle cx="0" cy="0" r="5.8714856007494625" fill="#51cacc" transform="translate(942.4208984375 387.1205749511719)" style="animation-play-state:paused" ></circle>
<path id="path14" d="M 981.1770671385223 543.0826493143908
c 0 32.786482152335026 -8.0222243564224 9.417393809713253 -17.439618166135652 9.417393809713253
S 946.2978308062509 575.8691314667258 946.2978308062509 543.0826493143908
s 8.0222243564224 -9.417393809713253 17.439618166135652 -9.417393809713253
S 981.1770671385223 510.2961671620558 981.1770671385223 543.0826493143908
z" fill="none" stroke="none" style="animation-play-state:paused" ></path>


<circle cx="0" cy="0" r="6.785608235780203" fill="#ff708e" transform="translate(947.1064453125 556.1578979492188)" style="animation-play-state:paused" ></circle>
<path id="path15" d="M 1911.6670998716954 235.3224121557808
c 0 22.503606050087505 -5.506201480340559 6.4638017377910915 -11.970003218131652 6.4638017377910915
S 1887.727093435432 257.8260182058683 1887.727093435432 235.3224121557808
s 5.506201480340559 -6.4638017377910915 11.970003218131652 -6.4638017377910915
S 1911.6670998716954 212.81880610569328 1911.6670998716954 235.3224121557808
z" fill="none" stroke="none" style="animation-play-state:paused" ></path>


<circle cx="0" cy="0" r="4.011074727954374" fill="#e0ff77" transform="translate(1905.6702880859375 245.10885620117188)" style="animation-play-state:paused" ></circle>
<path id="path16" d="M 783.2315353033567 513.9620178628836
c 0 22.30734959290088 -5.458181283369364 6.407430202216211 -11.865611485585575 6.407430202216211
S 759.5003123321857 536.2693674557845 759.5003123321857 513.9620178628836
s 5.458181283369364 -6.407430202216211 11.865611485585575 -6.407430202216211
S 783.2315353033567 491.6546682699827 783.2315353033567 513.9620178628836
z" fill="none" stroke="none" style="animation-play-state:paused" ></path>


<circle cx="0" cy="0" r="5.070466548770989" fill="#e0ff77" transform="translate(783.2276000976562 514.9721069335938)" style="animation-play-state:paused" ></circle>
<path id="path17" d="M 465.1226186366489 847.7169693306549
c 0 32.57995811391113 -7.971691878935701 9.358073075272346 -17.329764954208045 9.358073075272346
S 430.46308872823283 880.2969274445661 430.46308872823283 847.7169693306549
s 7.971691878935701 -9.358073075272346 17.329764954208045 -9.358073075272346
S 465.1226186366489 815.1370112167438 465.1226186366489 847.7169693306549
z" fill="none" stroke="none" style="animation-play-state:paused" ></path>


<circle cx="0" cy="0" r="6.939768272350142" fill="#9df871" transform="translate(435.5223083496094 830.768798828125)" style="animation-play-state:paused" ></circle>
<path id="path18" d="M 1759.7497664192663 601.0388996056819
c 0 30.847747141898054 -7.547853024081438 8.860523115226037 -16.408376139307475 8.860523115226037
S 1726.9330141406515 631.8866467475799 1726.9330141406515 601.0388996056819
s 7.547853024081438 -8.860523115226037 16.408376139307475 -8.860523115226037
S 1759.7497664192663 570.1911524637839 1759.7497664192663 601.0388996056819
z" fill="none" stroke="none" style="animation-play-state:paused" ></path>


<circle cx="0" cy="0" r="7.604742165583823" fill="#9df871" transform="translate(1759.136962890625 612.4848022460938)" style="animation-play-state:paused" ></circle>
<path id="path19" d="M 1003.4029570154968 174.28576443710946
c 0 19.159508063540606 -4.6879647389514245 5.5032629544212375 -10.191227693372662 5.5032629544212375
S 983.0205016287515 193.44527250065008 983.0205016287515 174.28576443710946
s 4.6879647389514245 -5.5032629544212375 10.191227693372662 -5.5032629544212375
S 1003.4029570154968 155.12625637356885 1003.4029570154968 174.28576443710946
z" fill="none" stroke="none" style="animation-play-state:paused" ></path>


<circle cx="0" cy="0" r="6.168546237095183" fill="#de9dd6" transform="translate(988.1660766601562 165.98846435546875)" style="animation-play-state:paused" ></circle>
<path id="path20" d="M 617.0885847112781 617.8384026147708
c 0 24.460088345160713 -5.984915233390387 7.025770056588716 -13.010685289979103 7.025770056588716
S 591.06721413132 642.2984909599314 591.06721413132 617.8384026147708
s 5.984915233390387 -7.025770056588716 13.010685289979103 -7.025770056588716
S 617.0885847112781 593.3783142696101 617.0885847112781 617.8384026147708
z" fill="none" stroke="none" style="animation-play-state:paused" ></path>


<circle cx="0" cy="0" r="6.682592116813892" fill="#ff708e" transform="translate(591.4951171875 626.5205688476562)" style="animation-play-state:paused" ></circle>
<path id="path21" d="M 1336.5879232245109 357.4942395903254
c 0 28.56187807153307 -6.9885446345240485 8.203943701397797 -15.192488335921846 8.203943701397797
S 1306.2029465526673 386.0561176618584 1306.2029465526673 357.4942395903254
s 6.9885446345240485 -8.203943701397797 15.192488335921846 -8.203943701397797
S 1336.5879232245109 328.93236151879233 1336.5879232245109 357.4942395903254
z" fill="none" stroke="none" style="animation-play-state:paused" ></path>


<circle cx="0" cy="0" r="4.848494771923099" fill="#e0ff77" transform="translate(1336.574462890625 359.5618591308594)" style="animation-play-state:paused" ></circle>
<path id="path22" d="M 1335.7414679947406 705.5620426025824
c 0 30.323397238250653 -7.419554643401755 8.709911972689017 -16.129466616090774 8.709911972689017
S 1303.4825347625592 735.8854398408331 1303.4825347625592 705.5620426025824
s 7.419554643401755 -8.709911972689017 16.129466616090774 -8.709911972689017
S 1335.7414679947406 675.2386453643318 1335.7414679947406 705.5620426025824
z" fill="none" stroke="none" style="animation-play-state:paused" ></path>


<circle cx="0" cy="0" r="6.7995273398580816" fill="#de9dd6" transform="translate(1304.822021484375 719.8314819335938)" style="animation-play-state:paused" ></circle>
<path id="path23" d="M 350.849619315871 304.74565908259416
c 0 22.78439064694407 -5.574904094465037 6.54445263263287 -12.119356727097907 6.54445263263287
S 326.6109058616752 327.53004972953823 326.6109058616752 304.74565908259416
s 5.574904094465037 -6.54445263263287 12.119356727097907 -6.54445263263287
S 350.849619315871 281.9612684356501 350.849619315871 304.74565908259416
z" fill="none" stroke="none" style="animation-play-state:paused" ></path>


<circle cx="0" cy="0" r="6.321374751479034" fill="#51cacc" transform="translate(326.6906433105469 308.9586486816406)" style="animation-play-state:paused" ></circle>
<path id="path24" d="M 1541.8855570464702 491.54000705146785
c 0 26.95825390817344 -6.596168509446692 7.743328250220031 -14.339496759666723 7.743328250220031
S 1513.206563527137 518.4982609596412 1513.206563527137 491.54000705146785
s 6.596168509446692 -7.743328250220031 14.339496759666723 -7.743328250220031
S 1541.8855570464702 464.5817531432944 1541.8855570464702 491.54000705146785
z" fill="none" stroke="none" style="animation-play-state:paused" ></path>


<circle cx="0" cy="0" r="4.505060179058351" fill="#51cacc" transform="translate(1538.399169921875 477.23150634765625)" style="animation-play-state:paused" ></circle>
<path id="path25" d="M 1436.937233852265 480.9880558918991
c 0 27.136835849528726 -6.639864090842134 7.794623063162506 -14.43448715400464 7.794623063162506
S 1408.0682595442556 508.1248917414278 1408.0682595442556 480.9880558918991
s 6.639864090842134 -7.794623063162506 14.43448715400464 -7.794623063162506
S 1436.937233852265 453.85122004237036 1436.937233852265 480.9880558918991
z" fill="none" stroke="none" style="animation-play-state:paused" ></path>


<circle cx="0" cy="0" r="4.617625836436773" fill="#51cacc" transform="translate(1436.5872802734375 489.60003662109375)" style="animation-play-state:paused" ></circle>
<path id="path26" d="M 279.78958970943336 625.452723891845
c 0 27.523209034317833 -6.734402210524576 7.905602594963634 -14.640004805488209 7.905602594963634
S 250.50958009845692 652.9759329261628 250.50958009845692 625.452723891845
s 6.734402210524576 -7.905602594963634 14.640004805488209 -7.905602594963634
S 279.78958970943336 597.9295148575272 279.78958970943336 625.452723891845
z" fill="none" stroke="none" style="animation-play-state:paused" ></path>


<circle cx="0" cy="0" r="4.888363053703423" fill="#de9dd6" transform="translate(279.7848815917969 624.2254028320312)" style="animation-play-state:paused" ></circle>
<path id="path27" d="M 1575.3721496723197 862.6187940295612
c 0 25.588794764857166 -6.261088080762923 7.349972964373867 -13.61106104513679 7.349972964373867
S 1548.1500275820463 888.2075887944184 1548.1500275820463 862.6187940295612
s 6.261088080762923 -7.349972964373867 13.61106104513679 -7.349972964373867
S 1575.3721496723197 837.029999264704 1575.3721496723197 862.6187940295612
z" fill="none" stroke="none" style="animation-play-state:paused" ></path>


<circle cx="0" cy="0" r="7.912908620410266" fill="#51cacc" transform="translate(1571.7369384765625 849.1485595703125)" style="animation-play-state:paused" ></circle>
<path id="path28" d="M 336.45051879432503 273.37882720379633
c 0 30.433670440709363 -7.446536384428886 8.74158619041652 -16.188122574845405 8.74158619041652
S 304.0742736446342 303.8124976445057 304.0742736446342 273.37882720379633
s 7.446536384428886 -8.74158619041652 16.188122574845405 -8.74158619041652
S 336.45051879432503 242.94515676308697 336.45051879432503 273.37882720379633
z" fill="none" stroke="none" style="animation-play-state:paused" ></path>


<circle cx="0" cy="0" r="4.163285909257282" fill="#de9dd6" transform="translate(311.92572021484375 286.83843994140625)" style="animation-play-state:paused" ></circle>
<path id="path29" d="M 231.5711643898062 27.677316017371567
c 0 30.85695079000675 -7.550104980533566 8.863166716278535 -16.4132716968121 8.863166716278535
S 198.744620996182 58.534266807378316 198.744620996182 27.677316017371567
s 7.550104980533566 -8.863166716278535 16.4132716968121 -8.863166716278535
S 231.5711643898062 -3.1796347726351826 231.5711643898062 27.677316017371567
z" fill="none" stroke="none" style="animation-play-state:paused" ></path>


<circle cx="0" cy="0" r="4.076195783882447" fill="#51cacc" transform="translate(207.1714324951172 14.435507774353027)" style="animation-play-state:paused" ></circle>
<path id="path30" d="M 119.0616690560013 645.4255308010402
c 0 33.56832398896359 -8.213526082405984 9.641965401085287 -17.85549148349127 9.641965401085287
S 83.35068608901875 678.9938547900038 83.35068608901875 645.4255308010402
s 8.213526082405984 -9.641965401085287 17.85549148349127 -9.641965401085287
S 119.0616690560013 611.8572068120766 119.0616690560013 645.4255308010402
z" fill="none" stroke="none" style="animation-play-state:paused" ></path>


<circle cx="0" cy="0" r="5.890691721939411" fill="#de9dd6" transform="translate(91.33010864257812 629.9926147460938)" style="animation-play-state:paused" ></circle>
<path id="path31" d="M 988.6992852837634 779.2144153810941
c 0 34.30598148339198 -8.394016745936336 9.853845745229613 -18.247862491165947 9.853845745229613
S 952.2035603014315 813.5203968644861 952.2035603014315 779.2144153810941
s 8.394016745936336 -9.853845745229613 18.247862491165947 -9.853845745229613
S 988.6992852837634 744.9084338977021 988.6992852837634 779.2144153810941
z" fill="none" stroke="none" style="animation-play-state:paused" ></path>


<circle cx="0" cy="0" r="5.773049839926955" fill="#de9dd6" transform="translate(988.6956176757812 778.0606689453125)" style="animation-play-state:paused" ></circle>
<path id="path32" d="M 156.2377849734116 525.4932777353831
c 0 35.926472476435684 -8.790519861255538 10.31930592408259 -19.109825785338128 10.31930592408259
S 118.01813340273534 561.4197502118188 118.01813340273534 525.4932777353831
s 8.790519861255538 -10.31930592408259 19.109825785338128 -10.31930592408259
S 156.2377849734116 489.56680525894745 156.2377849734116 525.4932777353831
z" fill="none" stroke="none" style="animation-play-state:paused" ></path>


<circle cx="0" cy="0" r="6.532529281413502" fill="#de9dd6" transform="translate(156.17376708984375 520.604736328125)" style="animation-play-state:paused" ></circle>
<path id="path33" d="M 1092.9511822800316 484.7751812303461
c 0 37.2057940930675 -9.103545363197366 10.686770643753432 -19.7903160069508 10.686770643753432
S 1053.3705502661298 521.9809753234136 1053.3705502661298 484.7751812303461
s 9.103545363197366 -10.686770643753432 19.7903160069508 -10.686770643753432
S 1092.9511822800316 447.5693871372786 1092.9511822800316 484.7751812303461
z" fill="none" stroke="none" style="animation-play-state:paused" ></path>


<circle cx="0" cy="0" r="4.0469352227555655" fill="#de9dd6" transform="translate(1054.0455322265625 498.1506652832031)" style="animation-play-state:paused" ></circle>
<path id="path34" d="M 490.8855078448334 532.0026398722838
c 0 35.41508516826679 -8.665393179469532 10.172418080246844 -18.83781125971638 10.172418080246844
S 453.20988532540065 567.4177250405506 453.20988532540065 532.0026398722838
s 8.665393179469532 -10.172418080246844 18.83781125971638 -10.172418080246844
S 490.8855078448334 496.587554704017 490.8855078448334 532.0026398722838
z" fill="none" stroke="none" style="animation-play-state:paused" ></path>


<circle cx="0" cy="0" r="4.4927159038329325" fill="#e0ff77" transform="translate(490.11212158203125 545.5745239257812)" style="animation-play-state:paused" ></circle>
<path id="path35" d="M 1180.7719028911438 270.55524705083815
c 0 34.23189663110971 -8.375889601228971 9.832566053616619 -18.20845565484559 9.832566053616619
S 1144.3549915814524 304.78714368194784 1144.3549915814524 270.55524705083815
s 8.375889601228971 -9.832566053616619 18.20845565484559 -9.832566053616619
S 1180.7719028911438 236.32335041972843 1180.7719028911438 270.55524705083815
z" fill="none" stroke="none" style="animation-play-state:paused" ></path>


<circle cx="0" cy="0" r="4.922142150985577" fill="#51cacc" transform="translate(1144.4033203125 274.734130859375)" style="animation-play-state:paused" ></circle>
<path id="path36" d="M 195.44204328890982 82.7839181741205
c 0 28.554175722566242 -6.986660017223655 8.2017313245669 -15.188391341790554 8.2017313245669
S 165.06526060532872 111.33809389668674 165.06526060532872 82.7839181741205
s 6.986660017223655 -8.2017313245669 15.188391341790554 -8.2017313245669
S 195.44204328890982 54.22974245155426 195.44204328890982 82.7839181741205
z" fill="none" stroke="none" style="animation-play-state:paused" ></path>


<circle cx="0" cy="0" r="7.1270914636078775" fill="#de9dd6" transform="translate(186.13307189941406 93.75709533691406)" style="animation-play-state:paused" ></circle>
<path id="path37" d="M 1095.688739818959 715.7331589069424
c 0 25.68361098896642 -6.284287795172634 7.377207411724398 -13.661495206897031 7.377207411724398
S 1068.3657494051647 741.4167698959088 1068.3657494051647 715.7331589069424
s 6.284287795172634 -7.377207411724398 13.661495206897031 -7.377207411724398
S 1095.688739818959 690.049547917976 1095.688739818959 715.7331589069424
z" fill="none" stroke="none" style="animation-play-state:paused" ></path>


<circle cx="0" cy="0" r="6.363027918518844" fill="#51cacc" transform="translate(1078.893310546875 707.3853149414062)" style="animation-play-state:paused" ></circle>
<path id="path38" d="M 478.3232925559044 539.5184673679175
c 0 32.91414714919724 -8.053461536505706 9.454063542854527 -17.507525079360235 9.454063542854527
S 443.30824239718396 572.4326145171148 443.30824239718396 539.5184673679175
s 8.053461536505706 -9.454063542854527 17.507525079360235 -9.454063542854527
S 478.3232925559044 506.6043202187203 478.3232925559044 539.5184673679175
z" fill="none" stroke="none" style="animation-play-state:paused" ></path>


<circle cx="0" cy="0" r="6.756277926769448" fill="#e0ff77" transform="translate(469.7625732421875 525.0220947265625)" style="animation-play-state:paused" ></circle>
<path id="path39" d="M 539.5871203682186 571.9971324675805
c 0 34.435533962681575 -8.425715756826342 9.891057627578752 -18.316773384405096 9.891057627578752
S 502.9535735994084 606.4326664302621 502.9535735994084 571.9971324675805
s 8.425715756826342 -9.891057627578752 18.316773384405096 -9.891057627578752
S 539.5871203682186 537.5615985048989 539.5871203682186 571.9971324675805
z" fill="none" stroke="none" style="animation-play-state:paused" ></path>


<circle cx="0" cy="0" r="6.628759870880291" fill="#ff708e" transform="translate(529.7902221679688 586.4339599609375)" style="animation-play-state:paused" ></circle>
<path id="path40" d="M 391.0303769138456 475.7846430752157
c 0 28.08039045375802 -6.870733834430153 8.065644066504964 -14.936377900935117 8.065644066504964
S 361.1576211119754 503.8650335289737 361.1576211119754 475.7846430752157
s 6.870733834430153 -8.065644066504964 14.936377900935117 -8.065644066504964
S 391.0303769138456 447.70425262145767 391.0303769138456 475.7846430752157
z" fill="none" stroke="none" style="animation-play-state:paused" ></path>


<circle cx="0" cy="0" r="7.20392170435548" fill="#e0ff77" transform="translate(391.0294189453125 475.2967529296875)" style="animation-play-state:paused" ></circle>
<path id="path41" d="M 123.562363790633 727.9550592454468
c 0 34.76557932172 -8.50647153616553 9.985857890281276 -18.492329426446805 9.985857890281276
S 86.5777049377394 762.7206385671668 86.5777049377394 727.9550592454468
s 8.50647153616553 -9.985857890281276 18.492329426446805 -9.985857890281276
S 123.562363790633 693.1894799237268 123.562363790633 727.9550592454468
z" fill="none" stroke="none" style="animation-play-state:paused" ></path>


<circle cx="0" cy="0" r="5.4966088747560535" fill="#51cacc" transform="translate(98.96845245361328 715.418701171875)" style="animation-play-state:paused" ></circle>
<path id="path42" d="M 507.7469387424774 598.8288916677747
c 0 30.430822645206863 -7.445839583401679 8.740768206601972 -16.186607790003652 8.740768206601972
S 475.37372316247007 629.2597143129815 475.37372316247007 598.8288916677747
s 7.445839583401679 -8.740768206601972 16.186607790003652 -8.740768206601972
S 507.7469387424774 568.3980690225678 507.7469387424774 598.8288916677747
z" fill="none" stroke="none" style="animation-play-state:paused" ></path>


<circle cx="0" cy="0" r="6.993361134689862" fill="#de9dd6" transform="translate(507.6295471191406 592.9605102539062)" style="animation-play-state:paused" ></circle>
<path id="path43" d="M 1522.652550834783 116.09373100287655
c 0 28.449961682123302 -6.961160837115275 8.171797504439672 -15.132958341554946 8.171797504439672
S 1492.386634151673 144.54369268499985 1492.386634151673 116.09373100287655
s 6.961160837115275 -8.171797504439672 15.132958341554946 -8.171797504439672
S 1522.652550834783 87.64376932075325 1522.652550834783 116.09373100287655
z" fill="none" stroke="none" style="animation-play-state:paused" ></path>


<circle cx="0" cy="0" r="4.10375031894214" fill="#de9dd6" transform="translate(1503.15576171875 106.28376770019531)" style="animation-play-state:paused" ></circle>
<path id="path44" d="M 1565.4450035524715 186.90355632994073
c 0 29.463037997222404 -7.2090412120863325 8.462787509840478 -15.671828721926811 8.462787509840478
S 1534.1013461086177 216.36659432716314 1534.1013461086177 186.90355632994073
s 7.2090412120863325 -8.462787509840478 15.671828721926811 -8.462787509840478
S 1565.4450035524715 157.4405183327183 1565.4450035524715 186.90355632994073
z" fill="none" stroke="none" style="animation-play-state:paused" ></path>


<circle cx="0" cy="0" r="5.925258769339781" fill="#ff708e" transform="translate(1540.064453125 172.50424194335938)" style="animation-play-state:paused" ></circle>
<path id="path45" d="M 755.1709266181714 286.5571176823998
c 0 36.7326850617055 -8.987784642757727 10.5508776241069 -19.538662266864627 10.5508776241069
S 716.0936020844421 323.2898027441053 716.0936020844421 286.5571176823998
s 8.987784642757727 -10.5508776241069 19.538662266864627 -10.5508776241069
S 755.1709266181714 249.8244326206943 755.1709266181714 286.5571176823998
z" fill="none" stroke="none" style="animation-play-state:paused" ></path>


<circle cx="0" cy="0" r="7.513782292572158" fill="#ff708e" transform="translate(746.6676025390625 269.4761962890625)" style="animation-play-state:paused" ></circle>
<path id="path46" d="M 79.81851717277858 293.08673192483167
c 0 36.11041594276688 -8.835527305145085 10.372140749518145 -19.20766805466323 10.372140749518145
S 41.403181063452124 329.1971478675986 41.403181063452124 293.08673192483167
s 8.835527305145085 -10.372140749518145 19.20766805466323 -10.372140749518145
S 79.81851717277858 256.97631598206476 79.81851717277858 293.08673192483167
z" fill="none" stroke="none" style="animation-play-state:paused" ></path>


<circle cx="0" cy="0" r="6.4850848138647965" fill="#51cacc" transform="translate(79.5553970336914 302.22833251953125)" style="animation-play-state:paused" ></circle></g></svg>